<svg xmlns="http://www.w3.org/2000/svg" width="24" height="24" viewBox="0 0 24 24" fill="none" stroke="white" stroke-width="2" stroke-linecap="round" stroke-linejoin="round" class="lucide lucide-headphones h-4 w-4 text-primary-foreground" data-lov-id="src\components\NavigationBar.tsx:24:10" data-lov-name="Headphones" data-component-path="src\components\NavigationBar.tsx" data-component-line="24" data-component-file="NavigationBar.tsx" data-component-name="Headphones" data-component-content="%7B%22className%22%3A%22h-4%20w-4%20text-primary-foreground%22%7D"><path d="M3 14h3a2 2 0 0 1 2 2v3a2 2 0 0 1-2 2H5a2 2 0 0 1-2-2v-7a9 9 0 0 1 18 0v7a2 2 0 0 1-2 2h-1a2 2 0 0 1-2-2v-3a2 2 0 0 1 2-2h3"></path></svg>